<svg width="83" height="32" viewBox="0 0 83 32" fill="none" xmlns="http://www.w3.org/2000/svg">
<path d="M39.8672 22.5833C39.5394 22.5833 39.2703 22.4838 39.0594 22.2849C38.8606 22.0742 38.7611 21.8167 38.7611 21.5124V11.3653C38.7611 11.061 38.8606 10.8094 39.0594 10.6104C39.2703 10.3998 39.5278 10.2944 39.8319 10.2944H45.5375C45.8419 10.2944 46.0936 10.3939 46.2925 10.5929C46.5031 10.7801 46.6083 11.0259 46.6083 11.3302C46.6083 11.5877 46.5031 11.8159 46.2925 12.0149C46.0936 12.2138 45.8419 12.3133 45.5375 12.3133H40.7975L40.9556 12.1027V15.6313L40.8328 15.4031H44.7475C45.0519 15.4031 45.3036 15.5026 45.5025 15.7015C45.7131 15.8888 45.8183 16.1346 45.8183 16.4389C45.8183 16.6963 45.7131 16.9246 45.5025 17.1235C45.3036 17.3225 45.0519 17.422 44.7475 17.422H40.7975L40.9556 17.264V21.5124C40.9556 21.8167 40.8444 22.0742 40.6219 22.2849C40.4114 22.4838 40.1597 22.5833 39.8672 22.5833ZM50.4272 21.5124C50.4272 21.8167 50.3278 22.0742 50.1286 22.2849C49.9297 22.4838 49.6781 22.5833 49.3739 22.5833C49.0694 22.5833 48.8181 22.4838 48.6189 22.2849C48.42 22.0742 48.3206 21.8167 48.3206 21.5124V14.262C48.3206 13.9577 48.42 13.7061 48.6189 13.5071C48.8181 13.2964 49.0694 13.1911 49.3739 13.1911C49.6781 13.1911 49.9297 13.2964 50.1286 13.5071C50.3278 13.7061 50.4272 13.9577 50.4272 14.262V21.5124ZM49.3564 12.05C48.9583 12.05 48.6775 11.9856 48.5136 11.8569C48.3497 11.7281 48.2678 11.4999 48.2678 11.1722V10.8387C48.2678 10.4992 48.3556 10.271 48.5311 10.154C48.7183 10.0252 48.9994 9.96088 49.3739 9.96088C49.7836 9.96088 50.0703 10.0252 50.2342 10.154C50.3981 10.2827 50.4797 10.511 50.4797 10.8387V11.1722C50.4797 11.5116 50.3919 11.7457 50.2164 11.8744C50.0408 11.9915 49.7542 12.05 49.3564 12.05ZM57.6131 13.0155C58.4792 13.0155 59.1347 13.197 59.5794 13.5598C60.0358 13.9226 60.3461 14.4083 60.5097 15.0169C60.6853 15.6138 60.7731 16.2809 60.7731 17.0182V21.5124C60.7731 21.8167 60.6736 22.0742 60.4747 22.2849C60.2758 22.4838 60.0242 22.5833 59.7197 22.5833C59.4155 22.5833 59.1639 22.4838 58.965 22.2849C58.7661 22.0742 58.6664 21.8167 58.6664 21.5124V17.0182C58.6664 16.632 58.6139 16.2867 58.5086 15.9824C58.415 15.6664 58.2394 15.4148 57.9819 15.2275C57.7244 15.0403 57.3556 14.9467 56.8758 14.9467C56.4078 14.9467 56.0097 15.0403 55.6819 15.2275C55.3661 15.4148 55.1203 15.6664 54.9447 15.9824C54.7808 16.2867 54.6989 16.632 54.6989 17.0182V21.5124C54.6989 21.8167 54.5994 22.0742 54.4006 22.2849C54.2017 22.4838 53.95 22.5833 53.6456 22.5833C53.3414 22.5833 53.0897 22.4838 52.8908 22.2849C52.6917 22.0742 52.5922 21.8167 52.5922 21.5124V14.262C52.5922 13.9577 52.6917 13.7061 52.8908 13.5071C53.0897 13.2964 53.3414 13.1911 53.6456 13.1911C53.95 13.1911 54.2017 13.2964 54.4006 13.5071C54.5994 13.7061 54.6989 13.9577 54.6989 14.262V15.0169L54.4356 14.9642C54.5408 14.7652 54.6931 14.5546 54.8919 14.3322C55.0911 14.0981 55.325 13.8816 55.5942 13.6827C55.8633 13.4837 56.1678 13.3257 56.5072 13.2087C56.8467 13.0799 57.2153 13.0155 57.6131 13.0155ZM68.0711 13.0155C68.9372 13.0155 69.5925 13.197 70.0372 13.5598C70.4936 13.9226 70.8039 14.4083 70.9678 15.0169C71.1433 15.6138 71.2311 16.2809 71.2311 17.0182V21.5124C71.2311 21.8167 71.1317 22.0742 70.9325 22.2849C70.7336 22.4838 70.4819 22.5833 70.1778 22.5833C69.8733 22.5833 69.6219 22.4838 69.4228 22.2849C69.2239 22.0742 69.1244 21.8167 69.1244 21.5124V17.0182C69.1244 16.632 69.0717 16.2867 68.9664 15.9824C68.8728 15.6664 68.6972 15.4148 68.4397 15.2275C68.1822 15.0403 67.8136 14.9467 67.3336 14.9467C66.8656 14.9467 66.4678 15.0403 66.14 15.2275C65.8239 15.4148 65.5781 15.6664 65.4025 15.9824C65.2389 16.2867 65.1569 16.632 65.1569 17.0182V21.5124C65.1569 21.8167 65.0575 22.0742 64.8583 22.2849C64.6594 22.4838 64.4078 22.5833 64.1036 22.5833C63.7992 22.5833 63.5475 22.4838 63.3486 22.2849C63.1497 22.0742 63.0503 21.8167 63.0503 21.5124V14.262C63.0503 13.9577 63.1497 13.7061 63.3486 13.5071C63.5475 13.2964 63.7992 13.1911 64.1036 13.1911C64.4078 13.1911 64.6594 13.2964 64.8583 13.5071C65.0575 13.7061 65.1569 13.9577 65.1569 14.262V15.0169L64.8936 14.9642C64.9989 14.7652 65.1511 14.5546 65.35 14.3322C65.5489 14.0981 65.783 13.8816 66.0522 13.6827C66.3214 13.4837 66.6256 13.3257 66.965 13.2087C67.3044 13.0799 67.6731 13.0155 68.0711 13.0155ZM80.3919 13.1911C80.6961 13.1911 80.9478 13.2964 81.1467 13.5071C81.3458 13.7061 81.4453 13.9577 81.4453 14.262V21.7231C81.4453 22.7998 81.2406 23.6542 80.8308 24.2862C80.4328 24.9299 79.8944 25.3922 79.2158 25.6731C78.5369 25.954 77.7761 26.0944 76.9336 26.0944C76.5589 26.0944 76.1611 26.0652 75.7397 26.0067C75.3183 25.9481 74.9731 25.8603 74.7039 25.7433C74.3528 25.5912 74.1069 25.3981 73.9667 25.164C73.8378 24.9416 73.8144 24.7017 73.8964 24.4442C74.0017 24.1048 74.1714 23.8707 74.4056 23.742C74.6394 23.625 74.8853 23.6132 75.1428 23.7069C75.33 23.7654 75.5758 23.8532 75.8803 23.9702C76.1844 24.099 76.5356 24.1633 76.9336 24.1633C77.4719 24.1633 77.9167 24.0872 78.2678 23.9351C78.6305 23.7947 78.8997 23.5489 79.0753 23.1978C79.2625 22.8583 79.3561 22.3902 79.3561 21.7933V20.6171L79.7247 21.0384C79.5258 21.4247 79.2742 21.7465 78.97 22.004C78.6772 22.2498 78.3261 22.437 77.9167 22.5658C77.5069 22.6945 77.0389 22.7589 76.5122 22.7589C75.8919 22.7589 75.3475 22.6184 74.8794 22.3375C74.423 22.045 74.0661 21.647 73.8086 21.1438C73.5511 20.6288 73.4225 20.0436 73.4225 19.3882V14.262C73.4225 13.9577 73.5219 13.7061 73.7208 13.5071C73.9197 13.2964 74.1714 13.1911 74.4756 13.1911C74.78 13.1911 75.0317 13.2964 75.2306 13.5071C75.4294 13.7061 75.5292 13.9577 75.5292 14.262V18.7562C75.5292 19.517 75.6928 20.0553 76.0206 20.3713C76.36 20.6756 76.8281 20.8278 77.425 20.8278C77.8347 20.8278 78.18 20.7517 78.4608 20.5995C78.7417 20.4357 78.9583 20.2016 79.1103 19.8973C79.2625 19.5813 79.3386 19.201 79.3386 18.7562V14.262C79.3386 13.9577 79.4381 13.7061 79.6369 13.5071C79.8361 13.2964 80.0875 13.1911 80.3919 13.1911Z" fill="white"/>
<mask id="mask0_930_413" style="mask-type:luminance" maskUnits="userSpaceOnUse" x="0" y="0" width="32" height="32">
<path d="M32 0H0V32H32V0Z" fill="white"/>
</mask>
<g mask="url(#mask0_930_413)">
<mask id="mask1_930_413" style="mask-type:luminance" maskUnits="userSpaceOnUse" x="0" y="0" width="32" height="32">
<path d="M32 0H0V32H32V0Z" fill="white"/>
</mask>
<g mask="url(#mask1_930_413)">
<path d="M22.2222 0H9.77778C4.37767 0 0 4.37767 0 9.77778V22.2222C0 27.6223 4.37767 32 9.77778 32H22.2222C27.6223 32 32 27.6223 32 22.2222V9.77778C32 4.37767 27.6223 0 22.2222 0Z" fill="url(#paint0_linear_930_413)"/>
<path fill-rule="evenodd" clip-rule="evenodd" d="M9.11615 11.27L16.0784 4.30771L23.0407 11.27L23.0187 11.292C21.8155 10.1122 19.8836 10.1194 18.6893 11.3137L16.0784 13.9246L13.4676 11.3137C12.2733 10.1194 10.3414 10.1122 9.13815 11.292L9.11615 11.27ZM9.11615 20.8869L16.0784 27.8492L23.0407 20.8869C21.8391 22.0885 19.8909 22.0885 18.6893 20.8869L16.0784 18.276C16.1836 18.1709 16.2795 18.06 16.3662 17.9445L16.0784 18.2323L15.7906 17.9445C15.8773 18.06 15.9733 18.1709 16.0784 18.276L13.4676 20.8869C12.266 22.0885 10.3178 22.0885 9.11615 20.8869ZM20.8868 9.11615L27.8492 16.0784L20.8868 23.0407L20.8648 23.0187C22.0447 21.8155 22.0374 19.8836 20.8431 18.6893L18.2322 16.0784L20.8431 13.4676C22.0374 12.2733 22.0447 10.3414 20.8649 9.13815L20.8868 9.11615ZM11.27 9.11615L4.30768 16.0784L11.27 23.0407C10.0683 21.8391 10.0683 19.8909 11.27 18.6893L13.8808 16.0784C13.986 16.1836 14.0968 16.2795 14.2124 16.3662L13.9246 16.0784L14.2124 15.7906C14.0968 15.8773 13.986 15.9733 13.8808 16.0784L11.27 13.4676C10.0683 12.266 10.0683 10.3178 11.27 9.11615Z" fill="white"/>
</g>
</g>
<defs>
<linearGradient id="paint0_linear_930_413" x1="37.7917" y1="32" x2="0" y2="0" gradientUnits="userSpaceOnUse">
<stop stop-color="#09D5E6"/>
<stop offset="1" stop-color="#8F5BFF"/>
</linearGradient>
</defs>
</svg>
