<svg width="32" height="32" viewBox="0 0 32 32" fill="none" xmlns="http://www.w3.org/2000/svg">
<mask id="mask0_930_460" style="mask-type:luminance" maskUnits="userSpaceOnUse" x="0" y="0" width="32" height="32">
<path d="M32 0H0V32H32V0Z" fill="white"/>
</mask>
<g mask="url(#mask0_930_460)">
<mask id="mask1_930_460" style="mask-type:luminance" maskUnits="userSpaceOnUse" x="0" y="0" width="32" height="32">
<path d="M32 0H0V32H32V0Z" fill="white"/>
</mask>
<g mask="url(#mask1_930_460)">
<path d="M22.2222 0H9.77778C4.37767 0 0 4.37767 0 9.77778V22.2222C0 27.6223 4.37767 32 9.77778 32H22.2222C27.6223 32 32 27.6223 32 22.2222V9.77778C32 4.37767 27.6223 0 22.2222 0Z" fill="url(#paint0_linear_930_460)"/>
<path fill-rule="evenodd" clip-rule="evenodd" d="M9.11621 11.27L16.0785 4.30771L23.0408 11.27L23.0188 11.292C21.8155 10.1122 19.8837 10.1194 18.6894 11.3137L16.0785 13.9246L13.4676 11.3137C12.2733 10.1194 10.3415 10.1122 9.13821 11.292L9.11621 11.27ZM9.11621 20.8869L16.0785 27.8492L23.0408 20.8869C21.8392 22.0885 19.8909 22.0885 18.6894 20.8869L16.0785 18.276C16.1836 18.1709 16.2795 18.06 16.3663 17.9445L16.0785 18.2323L15.7907 17.9445C15.8774 18.06 15.9733 18.1709 16.0785 18.276L13.4676 20.8869C12.266 22.0885 10.3178 22.0885 9.11621 20.8869ZM20.8869 9.11615L27.8492 16.0784L20.8869 23.0407L20.8649 23.0187C22.0447 21.8155 22.0375 19.8836 20.8432 18.6893L18.2323 16.0784L20.8432 13.4676C22.0375 12.2733 22.0447 10.3414 20.8649 9.13815L20.8869 9.11615ZM11.27 9.11615L4.30774 16.0784L11.27 23.0407C10.0684 21.8391 10.0684 19.8909 11.27 18.6893L13.8809 16.0784C13.986 16.1836 14.0969 16.2795 14.2124 16.3662L13.9246 16.0784L14.2125 15.7906C14.0969 15.8773 13.986 15.9733 13.8809 16.0784L11.27 13.4676C10.0684 12.266 10.0684 10.3178 11.27 9.11615Z" fill="white"/>
</g>
</g>
<defs>
<linearGradient id="paint0_linear_930_460" x1="37.7917" y1="32" x2="0" y2="0" gradientUnits="userSpaceOnUse">
<stop stop-color="#09D5E6"/>
<stop offset="1" stop-color="#8F5BFF"/>
</linearGradient>
</defs>
</svg>
